# xmcd
#
# Track frame offsets: 
#        150
#        16890
#        37395
#        54387
#        69594
#        87124
#        104749
#        124187
#        146117
#        163097
#        181070
#
# Disc length: 2727 seconds
#
# Revision: 3
# Processed by: cddbd v1.5.2PL0 Copyright (c) Steve Scherf et al.
# Submitted via: ExactAudioCopy v1.0b3
#
DISCID=9c0aa50b
DTITLE=Madonna - MDNA (Deluxe Clean Version)
DYEAR=2012
DGENRE=Pop - Music - Electronic - Dance - Rock - Adult Contemporary - Pop/Ro
DGENRE=c
TTITLE0=Girl Gone Wild
TTITLE1=I'm Addicted
TTITLE2=Turn Up the Radio
TTITLE3=Madonna - Nicki Minaj - M.I.A. - Give Me All Your Luvin'
TTITLE4=Some Girls
TTITLE5=Superstar
TTITLE6=Madonna - Nicki Minaj - I Don't Give A
TTITLE7=I'm a Sinner
TTITLE8=Love Spent
TTITLE9=Masterpiece
TTITLE10=Falling Free
EXTD=YEAR: 2012
EXTT0=
EXTT1=
EXTT2=
EXTT3=
EXTT4=
EXTT5=
EXTT6=
EXTT7=
EXTT8=
EXTT9=
EXTT10=
PLAYORDER=
